<?xml version="1.0" encoding="UTF-8"?>
<svg width="33px" height="32px" viewBox="0 0 33 32" version="1.1" xmlns="http://www.w3.org/2000/svg" xmlns:xlink="http://www.w3.org/1999/xlink">
    <!-- Generator: Sketch 42 (36781) - http://www.bohemiancoding.com/sketch -->
    <title>Shape</title>
    <desc>Created with Sketch.</desc>
    <defs></defs>
    <g id="Page-1" stroke="none" stroke-width="1" fill="none" fill-rule="evenodd">
        <g id="icon-google-plus" fill-rule="nonzero" fill="#FFFFFF">
            <path d="M17.7,25.7 C17.7,25.4 17.7,25.2 17.6,24.9 C17.5,24.7 17.5,24.4 17.4,24.2 C17.3,24 17.2,23.8 17.1,23.5 C16.9,23.3 16.8,23.1 16.7,22.9 C16.6,22.7 16.4,22.6 16.2,22.3 C16,22.1 15.8,21.9 15.7,21.8 C15.6,21.7 15.4,21.5 15.1,21.3 C14.8,21.1 14.6,20.9 14.5,20.9 C14.4,20.9 14.2,20.7 13.9,20.5 C13.6,20.3 13.4,20.1 13.3,20.1 L12.3,20.1 C11.6,20.1 10.9,20.1 10.3,20.2 C9.6,20.3 8.9,20.4 8.2,20.7 C7.5,20.9 6.9,21.2 6.3,21.6 C5.7,22 5.3,22.4 5,23 C4.7,23.6 4.5,24.3 4.5,25.1 C4.5,26 4.7,26.8 5.2,27.4 C5.7,28.1 6.3,28.6 7,29 C7.7,29.4 8.5,29.7 9.3,29.9 C10.1,30.1 10.9,30.2 11.7,30.2 C12.5,30.2 13.2,30.1 13.9,30 C14.6,29.8 15.2,29.6 15.8,29.2 C16.4,28.9 16.9,28.4 17.2,27.8 C17.5,27.2 17.7,26.5 17.7,25.7 Z M15.4,9.1 C15.4,8.3 15.3,7.5 15.1,6.6 C14.9,5.7 14.6,4.9 14.2,4.1 C13.8,3.3 13.3,2.6 12.6,2.1 C11.9,1.6 11.1,1.3 10.3,1.3 C9.1,1.3 8.2,1.7 7.5,2.6 C6.8,3.5 6.5,4.5 6.5,5.8 C6.5,6.4 6.6,7 6.7,7.7 C6.8,8.4 7.1,9 7.4,9.7 C7.7,10.4 8.1,11 8.5,11.5 C8.9,12 9.4,12.5 10,12.8 C10.6,13.1 11.2,13.3 11.9,13.3 C13.1,13.3 14,12.9 14.6,12.1 C15.1,11.4 15.4,10.4 15.4,9.1 Z M12.9,0 L21.3,0 L18.7,1.5 L16.1,1.5 C17,2.1 17.7,2.9 18.2,3.9 C18.7,4.9 19,6 19,7.1 C19,8 18.9,8.9 18.6,9.6 C18.3,10.3 17.9,10.9 17.5,11.4 C17.1,11.8 16.7,12.3 16.2,12.6 C15.8,13 15.4,13.4 15.1,13.8 C14.8,14.2 14.7,14.6 14.7,15.1 C14.7,15.4 14.8,15.8 15,16.1 C15.2,16.4 15.5,16.7 15.8,17 C16.1,17.3 16.5,17.6 16.9,17.9 C17.3,18.2 17.7,18.6 18.1,19 C18.5,19.4 18.9,19.8 19.2,20.3 C19.5,20.8 19.8,21.3 20,21.9 C20.2,22.5 20.3,23.2 20.3,23.9 C20.3,26 19.4,27.8 17.6,29.3 C15.7,31 13,31.8 9.5,31.8 C8.7,31.8 8,31.7 7.2,31.6 C6.4,31.5 5.6,31.3 4.9,31 C4.1,30.7 3.4,30.3 2.8,29.9 C2.2,29.5 1.7,28.9 1.3,28.2 C1,27.6 0.8,26.9 0.8,26 C0.8,25.2 1,24.4 1.5,23.4 C1.9,22.6 2.5,21.9 3.3,21.3 C4.1,20.7 5.1,20.2 6.1,19.9 C7.1,19.6 8.1,19.4 9.1,19.2 C10,19.1 11,19 12,18.9 C11.2,17.8 10.8,16.9 10.8,16 L10.8,15.5 C10.8,15.4 10.9,15.2 10.9,15.1 C10.9,15 11,14.9 11.1,14.7 C11.2,14.5 11.2,14.4 11.2,14.3 C10.7,14.4 10.2,14.4 9.9,14.4 C8,14.4 6.4,13.8 5,12.5 C3.6,11.2 3,9.7 3,7.8 C3,6 3.6,4.4 4.8,3 C6,1.7 7.5,0.8 9.3,0.4 C10.5,0.1 11.7,0 12.9,0 Z M32.8,4.9 L32.8,7.4 L27.9,7.4 L27.9,12.3 L25.4,12.3 L25.4,7.4 L20.5,7.4 L20.5,4.9 L25.4,4.9 L25.4,0 L27.9,0 L27.9,4.9 L32.8,4.9 Z" id="Shape"></path>
        </g>
    </g>
</svg>